<svg width="70" height="100" viewBox="0 0 70 100" fill="none" xmlns="http://www.w3.org/2000/svg">
<rect width="70" height="100" rx="35" fill="#2B5770" fill-opacity="0.7"/>
<path d="M35 53C46.046 53 55 44.046 55 33C55 21.954 46.046 13 35 13C23.954 13 15 21.954 15 33C15 44.046 23.954 53 35 53Z" stroke="#FFFAFA" stroke-width="4" stroke-linejoin="round"/>
<path fill-rule="evenodd" clip-rule="evenodd" d="M26 28C26.663 28 27.2989 27.7366 27.7678 27.2678C28.2366 26.7989 28.5 26.163 28.5 25.5C28.5 24.837 28.2366 24.2011 27.7678 23.7322C27.2989 23.2634 26.663 23 26 23C25.337 23 24.7011 23.2634 24.2322 23.7322C23.7634 24.2011 23.5 24.837 23.5 25.5C23.5 26.163 23.7634 26.7989 24.2322 27.2678C24.7011 27.7366 25.337 28 26 28ZM26 36C26.663 36 27.2989 35.7366 27.7678 35.2678C28.2366 34.7989 28.5 34.163 28.5 33.5C28.5 32.837 28.2366 32.2011 27.7678 31.7322C27.2989 31.2634 26.663 31 26 31C25.337 31 24.7011 31.2634 24.2322 31.7322C23.7634 32.2011 23.5 32.837 23.5 33.5C23.5 34.163 23.7634 34.7989 24.2322 35.2678C24.7011 35.7366 25.337 36 26 36ZM35 28C35.663 28 36.2989 27.7366 36.7678 27.2678C37.2366 26.7989 37.5 26.163 37.5 25.5C37.5 24.837 37.2366 24.2011 36.7678 23.7322C36.2989 23.2634 35.663 23 35 23C34.337 23 33.7011 23.2634 33.2322 23.7322C32.7634 24.2011 32.5 24.837 32.5 25.5C32.5 26.163 32.7634 26.7989 33.2322 27.2678C33.7011 27.7366 34.337 28 35 28ZM35 36C35.663 36 36.2989 35.7366 36.7678 35.2678C37.2366 34.7989 37.5 34.163 37.5 33.5C37.5 32.837 37.2366 32.2011 36.7678 31.7322C36.2989 31.2634 35.663 31 35 31C34.337 31 33.7011 31.2634 33.2322 31.7322C32.7634 32.2011 32.5 32.837 32.5 33.5C32.5 34.163 32.7634 34.7989 33.2322 35.2678C33.7011 35.7366 34.337 36 35 36ZM44 28C44.663 28 45.2989 27.7366 45.7678 27.2678C46.2366 26.7989 46.5 26.163 46.5 25.5C46.5 24.837 46.2366 24.2011 45.7678 23.7322C45.2989 23.2634 44.663 23 44 23C43.337 23 42.7011 23.2634 42.2322 23.7322C41.7634 24.2011 41.5 24.837 41.5 25.5C41.5 26.163 41.7634 26.7989 42.2322 27.2678C42.7011 27.7366 43.337 28 44 28ZM44 36C44.663 36 45.2989 35.7366 45.7678 35.2678C46.2366 34.7989 46.5 34.163 46.5 33.5C46.5 32.837 46.2366 32.2011 45.7678 31.7322C45.2989 31.2634 44.663 31 44 31C43.337 31 42.7011 31.2634 42.2322 31.7322C41.7634 32.2011 41.5 32.837 41.5 33.5C41.5 34.163 41.7634 34.7989 42.2322 35.2678C42.7011 35.7366 43.337 36 44 36Z" fill="#FFFAFA"/>
<path d="M28 42H42" stroke="#FFFAFA" stroke-width="4" stroke-linecap="round" stroke-linejoin="round"/>
</svg>
