<svg width="60" height="60" viewBox="0 0 60 60" fill="none" xmlns="http://www.w3.org/2000/svg">
<circle cx="30" cy="30" r="30" fill="#104256"/>
<g clip-path="url(#clip0_23_457)">
<path d="M29.6852 13.0336C29.8928 12.9934 30.1071 12.9934 30.3147 13.0336L43.7075 15.7122C44.4575 15.8595 44.9999 16.5225 44.9999 17.2858C44.9999 18.0492 44.4575 18.7122 43.7075 18.8595L38.5714 19.8908V23.7144C38.5714 28.4488 34.7343 32.2858 29.9999 32.2858C25.2656 32.2858 21.4285 28.4488 21.4285 23.7144V19.8908L18.2142 19.2479V23.6073L19.2656 28.8573C19.3258 29.172 19.2455 29.5001 19.0446 29.7479C18.8437 29.9957 18.5356 30.143 18.2142 30.143H16.0714C15.7499 30.143 15.4486 30.0024 15.241 29.7479C15.0334 29.4934 14.9531 29.172 15.02 28.8573L16.0714 23.6073V18.7992C15.4352 18.5783 14.9999 17.9756 14.9999 17.2858C14.9999 16.5225 15.5423 15.8595 16.2923 15.7122L29.6852 13.0336ZM22.4932 34.9443C23.1964 34.7167 23.9531 34.9711 24.462 35.5135L29.2164 40.5693C29.6383 41.018 30.3548 41.018 30.7767 40.5693L35.5312 35.5135C36.0401 34.9711 36.7968 34.7167 37.4999 34.9443C41.8526 36.3439 44.9999 40.4153 44.9999 45.23C44.9999 46.3684 44.0758 47.2859 42.9441 47.2859H17.0557C15.924 47.2859 14.9999 46.3617 14.9999 45.23C14.9999 40.4153 18.1473 36.3439 22.4932 34.9443Z" fill="white"/>
</g>
<defs>
<clipPath id="clip0_23_457">
<rect width="30" height="34.2857" fill="white" transform="translate(15 13)"/>
</clipPath>
</defs>
</svg>
