<svg width="60" height="60" viewBox="0 0 60 60" fill="none" xmlns="http://www.w3.org/2000/svg">
<circle cx="30" cy="30" r="30" fill="#104256"/>
<path d="M24.7143 18.3571C24.7143 16.5826 26.154 15.1429 27.9286 15.1429H30.0714C31.846 15.1429 33.2857 16.5826 33.2857 18.3571V41.9286C33.2857 43.7031 31.846 45.1429 30.0714 45.1429H27.9286C26.154 45.1429 24.7143 43.7031 24.7143 41.9286V18.3571ZM14 31.2143C14 29.4397 15.4397 28 17.2143 28H19.3571C21.1317 28 22.5714 29.4397 22.5714 31.2143V41.9286C22.5714 43.7031 21.1317 45.1429 19.3571 45.1429H17.2143C15.4397 45.1429 14 43.7031 14 41.9286V31.2143ZM38.6429 19.4286H40.7857C42.5603 19.4286 44 20.8683 44 22.6429V41.9286C44 43.7031 42.5603 45.1429 40.7857 45.1429H38.6429C36.8683 45.1429 35.4286 43.7031 35.4286 41.9286V22.6429C35.4286 20.8683 36.8683 19.4286 38.6429 19.4286Z" fill="white"/>
</svg>
