<svg width="60" height="60" viewBox="0 0 60 60" fill="none" xmlns="http://www.w3.org/2000/svg">
<circle cx="30" cy="30" r="30" fill="#104256"/>
<g clip-path="url(#clip0_23_271)">
<path d="M40.0044 20H20C18.3512 19.9998 16.7279 20.4072 15.2747 21.1861C13.8214 21.965 12.5833 23.0911 11.6706 24.4642C10.7579 25.8373 10.1988 27.4148 10.0432 29.0563C9.8876 30.6977 10.1403 32.3522 10.7787 33.8723C11.4172 35.3925 12.4217 36.7312 13.7027 37.7693C14.9837 38.8073 16.5015 39.5126 18.1209 39.8221C19.7404 40.1317 21.4113 40.0361 22.9849 39.5437C24.5584 39.0513 25.9858 38.1775 27.14 37H32.86C34.014 38.1773 35.4412 39.0511 37.0146 39.5435C38.588 40.0359 40.2587 40.1317 41.878 39.8223C43.4973 39.513 45.015 38.808 46.2961 37.7703C47.5771 36.7326 48.5817 35.3942 49.2204 33.8743C49.8591 32.3545 50.1122 30.7003 49.957 29.059C49.8019 27.4177 49.2434 25.8402 48.3312 24.4669C47.419 23.0937 46.1815 21.9672 44.7287 21.1879C43.2759 20.4086 41.653 20.0005 40.0044 20ZM25.5 30.75C25.5 30.9489 25.421 31.1397 25.2803 31.2803C25.1397 31.421 24.9489 31.5 24.75 31.5H21.5V34.75C21.5 34.9489 21.421 35.1397 21.2803 35.2803C21.1397 35.421 20.9489 35.5 20.75 35.5H19.25C19.0511 35.5 18.8603 35.421 18.7197 35.2803C18.579 35.1397 18.5 34.9489 18.5 34.75V31.5H15.25C15.0511 31.5 14.8603 31.421 14.7197 31.2803C14.579 31.1397 14.5 30.9489 14.5 30.75V29.25C14.5 29.0511 14.579 28.8603 14.7197 28.7197C14.8603 28.579 15.0511 28.5 15.25 28.5H18.5V25.25C18.5 25.0511 18.579 24.8603 18.7197 24.7197C18.8603 24.579 19.0511 24.5 19.25 24.5H20.75C20.9489 24.5 21.1397 24.579 21.2803 24.7197C21.421 24.8603 21.5 25.0511 21.5 25.25V28.5H24.75C24.9489 28.5 25.1397 28.579 25.2803 28.7197C25.421 28.8603 25.5 29.0511 25.5 29.25V30.75ZM39 35.5C38.5055 35.5 38.0222 35.3534 37.6111 35.0787C37.1999 34.804 36.8795 34.4135 36.6903 33.9567C36.5011 33.4999 36.4516 32.9972 36.548 32.5123C36.6445 32.0273 36.8826 31.5819 37.2322 31.2322C37.5819 30.8826 38.0273 30.6445 38.5123 30.548C38.9972 30.4516 39.4999 30.5011 39.9567 30.6903C40.4135 30.8795 40.804 31.2 41.0787 31.6111C41.3534 32.0222 41.5 32.5055 41.5 33C41.5 33.663 41.2366 34.2989 40.7678 34.7678C40.2989 35.2366 39.663 35.5 39 35.5ZM43 29.5C42.5055 29.5 42.0222 29.3534 41.6111 29.0787C41.1999 28.804 40.8795 28.4135 40.6903 27.9567C40.5011 27.4999 40.4516 26.9972 40.548 26.5123C40.6445 26.0273 40.8826 25.5819 41.2322 25.2322C41.5819 24.8826 42.0273 24.6445 42.5123 24.548C42.9972 24.4516 43.4999 24.5011 43.9567 24.6903C44.4135 24.8795 44.804 25.2 45.0787 25.6111C45.3534 26.0222 45.5 26.5055 45.5 27C45.5 27.663 45.2366 28.2989 44.7678 28.7678C44.2989 29.2366 43.663 29.5 43 29.5Z" fill="white"/>
</g>
<defs>
<clipPath id="clip0_23_271">
<rect width="40" height="32" fill="white" transform="translate(10 14)"/>
</clipPath>
</defs>
</svg>
