<svg width="60" height="60" viewBox="0 0 60 60" fill="none" xmlns="http://www.w3.org/2000/svg">
<circle cx="30" cy="30" r="30" fill="#104256"/>
<g clip-path="url(#clip0_23_283)">
<path d="M24.2656 30C22.5781 30.0521 21.1979 30.7188 20.125 32H18.0312C17.1771 32 16.4583 31.7891 15.875 31.3672C15.2917 30.9453 15 30.3281 15 29.5156C15 25.8385 15.6458 24 16.9375 24C17 24 17.2266 24.1094 17.6172 24.3281C18.0078 24.5469 18.5156 24.7682 19.1406 24.9922C19.7656 25.2161 20.3854 25.3281 21 25.3281C21.6979 25.3281 22.3906 25.2083 23.0781 24.9688C23.026 25.3542 23 25.6979 23 26C23 27.4479 23.4219 28.7812 24.2656 30ZM41 39.9531C41 41.2031 40.6198 42.1901 39.8594 42.9141C39.099 43.638 38.0885 44 36.8281 44H23.1719C21.9115 44 20.901 43.638 20.1406 42.9141C19.3802 42.1901 19 41.2031 19 39.9531C19 39.401 19.0182 38.862 19.0547 38.3359C19.0911 37.8099 19.1641 37.2422 19.2734 36.6328C19.3828 36.0234 19.5208 35.4583 19.6875 34.9375C19.8542 34.4167 20.0781 33.9089 20.3594 33.4141C20.6406 32.9193 20.9635 32.4974 21.3281 32.1484C21.6927 31.7995 22.138 31.5208 22.6641 31.3125C23.1901 31.1042 23.7708 31 24.4062 31C24.5104 31 24.7344 31.112 25.0781 31.3359C25.4219 31.5599 25.8021 31.8099 26.2188 32.0859C26.6354 32.362 27.1927 32.612 27.8906 32.8359C28.5885 33.0599 29.2917 33.1719 30 33.1719C30.7083 33.1719 31.4115 33.0599 32.1094 32.8359C32.8073 32.612 33.3646 32.362 33.7812 32.0859C34.1979 31.8099 34.5781 31.5599 34.9219 31.3359C35.2656 31.112 35.4896 31 35.5938 31C36.2292 31 36.8099 31.1042 37.3359 31.3125C37.862 31.5208 38.3073 31.7995 38.6719 32.1484C39.0365 32.4974 39.3594 32.9193 39.6406 33.4141C39.9219 33.9089 40.1458 34.4167 40.3125 34.9375C40.4792 35.4583 40.6172 36.0234 40.7266 36.6328C40.8359 37.2422 40.9089 37.8099 40.9453 38.3359C40.9818 38.862 41 39.401 41 39.9531ZM25 20C25 21.1042 24.6094 22.0469 23.8281 22.8281C23.0469 23.6094 22.1042 24 21 24C19.8958 24 18.9531 23.6094 18.1719 22.8281C17.3906 22.0469 17 21.1042 17 20C17 18.8958 17.3906 17.9531 18.1719 17.1719C18.9531 16.3906 19.8958 16 21 16C22.1042 16 23.0469 16.3906 23.8281 17.1719C24.6094 17.9531 25 18.8958 25 20ZM36 26C36 27.6562 35.4141 29.0703 34.2422 30.2422C33.0703 31.4141 31.6562 32 30 32C28.3438 32 26.9297 31.4141 25.7578 30.2422C24.5859 29.0703 24 27.6562 24 26C24 24.3438 24.5859 22.9297 25.7578 21.7578C26.9297 20.5859 28.3438 20 30 20C31.6562 20 33.0703 20.5859 34.2422 21.7578C35.4141 22.9297 36 24.3438 36 26ZM45 29.5156C45 30.3281 44.7083 30.9453 44.125 31.3672C43.5417 31.7891 42.8229 32 41.9688 32H39.875C38.8021 30.7188 37.4219 30.0521 35.7344 30C36.5781 28.7812 37 27.4479 37 26C37 25.6979 36.974 25.3542 36.9219 24.9688C37.6094 25.2083 38.3021 25.3281 39 25.3281C39.6146 25.3281 40.2344 25.2161 40.8594 24.9922C41.4844 24.7682 41.9922 24.5469 42.3828 24.3281C42.7734 24.1094 43 24 43.0625 24C44.3542 24 45 25.8385 45 29.5156ZM43 20C43 21.1042 42.6094 22.0469 41.8281 22.8281C41.0469 23.6094 40.1042 24 39 24C37.8958 24 36.9531 23.6094 36.1719 22.8281C35.3906 22.0469 35 21.1042 35 20C35 18.8958 35.3906 17.9531 36.1719 17.1719C36.9531 16.3906 37.8958 16 39 16C40.1042 16 41.0469 16.3906 41.8281 17.1719C42.6094 17.9531 43 18.8958 43 20Z" fill="white"/>
</g>
<defs>
<clipPath id="clip0_23_283">
<rect width="30" height="28" fill="white" transform="translate(15 16)"/>
</clipPath>
</defs>
</svg>
