<svg width="60" height="60" viewBox="0 0 60 60" fill="none" xmlns="http://www.w3.org/2000/svg">
<circle cx="30" cy="30" r="30" fill="#104256"/>
<g clip-path="url(#clip0_71_58)">
<path d="M30 12.5625C20.3672 12.5625 12.5625 20.3672 12.5625 30C12.5625 39.6328 20.3672 47.4375 30 47.4375C39.6328 47.4375 47.4375 39.6328 47.4375 30C47.4375 20.3672 39.6328 12.5625 30 12.5625ZM32.032 22.6594L26.7234 27.75H39.5625C40.4977 27.75 41.25 28.5023 41.25 29.4375V30.5625C41.25 31.4977 40.4977 32.25 39.5625 32.25H26.7234L32.032 37.3406C32.7141 37.9945 32.7281 39.0844 32.0602 39.7523L31.2867 40.5188C30.6258 41.1797 29.557 41.1797 28.9031 40.5188L19.5727 31.1953C18.9117 30.5344 18.9117 29.4656 19.5727 28.8117L28.9031 19.4742C29.5641 18.8133 30.6328 18.8133 31.2867 19.4742L32.0602 20.2406C32.7281 20.9156 32.7141 22.0055 32.032 22.6594Z" fill="white"/>
</g>
<defs>
<clipPath id="clip0_71_58">
<rect width="36" height="36" fill="white" transform="matrix(-1 0 0 1 48 12)"/>
</clipPath>
</defs>
</svg>
