<svg width="60" height="60" viewBox="0 0 60 60" fill="none" xmlns="http://www.w3.org/2000/svg">
<circle cx="30" cy="30" r="30" fill="#104256"/>
<g clip-path="url(#clip0_23_531)">
<path d="M22.2656 30C20.5781 30.0521 19.1979 30.7188 18.125 32H16.0312C15.1771 32 14.4583 31.7891 13.875 31.3672C13.2917 30.9453 13 30.3281 13 29.5156C13 25.8385 13.6458 24 14.9375 24C15 24 15.2266 24.1094 15.6172 24.3281C16.0078 24.5469 16.5156 24.7682 17.1406 24.9922C17.7656 25.2161 18.3854 25.3281 19 25.3281C19.6979 25.3281 20.3906 25.2083 21.0781 24.9688C21.026 25.3542 21 25.6979 21 26C21 27.4479 21.4219 28.7812 22.2656 30ZM39 39.9531C39 41.2031 38.6198 42.1901 37.8594 42.9141C37.099 43.638 36.0885 44 34.8281 44H21.1719C19.9115 44 18.901 43.638 18.1406 42.9141C17.3802 42.1901 17 41.2031 17 39.9531C17 39.401 17.0182 38.862 17.0547 38.3359C17.0911 37.8099 17.1641 37.2422 17.2734 36.6328C17.3828 36.0234 17.5208 35.4583 17.6875 34.9375C17.8542 34.4167 18.0781 33.9089 18.3594 33.4141C18.6406 32.9193 18.9635 32.4974 19.3281 32.1484C19.6927 31.7995 20.138 31.5208 20.6641 31.3125C21.1901 31.1042 21.7708 31 22.4062 31C22.5104 31 22.7344 31.112 23.0781 31.3359C23.4219 31.5599 23.8021 31.8099 24.2188 32.0859C24.6354 32.362 25.1927 32.612 25.8906 32.8359C26.5885 33.0599 27.2917 33.1719 28 33.1719C28.7083 33.1719 29.4115 33.0599 30.1094 32.8359C30.8073 32.612 31.3646 32.362 31.7812 32.0859C32.1979 31.8099 32.5781 31.5599 32.9219 31.3359C33.2656 31.112 33.4896 31 33.5938 31C34.2292 31 34.8099 31.1042 35.3359 31.3125C35.862 31.5208 36.3073 31.7995 36.6719 32.1484C37.0365 32.4974 37.3594 32.9193 37.6406 33.4141C37.9219 33.9089 38.1458 34.4167 38.3125 34.9375C38.4792 35.4583 38.6172 36.0234 38.7266 36.6328C38.8359 37.2422 38.9089 37.8099 38.9453 38.3359C38.9818 38.862 39 39.401 39 39.9531ZM23 20C23 21.1042 22.6094 22.0469 21.8281 22.8281C21.0469 23.6094 20.1042 24 19 24C17.8958 24 16.9531 23.6094 16.1719 22.8281C15.3906 22.0469 15 21.1042 15 20C15 18.8958 15.3906 17.9531 16.1719 17.1719C16.9531 16.3906 17.8958 16 19 16C20.1042 16 21.0469 16.3906 21.8281 17.1719C22.6094 17.9531 23 18.8958 23 20ZM34 26C34 27.6562 33.4141 29.0703 32.2422 30.2422C31.0703 31.4141 29.6562 32 28 32C26.3438 32 24.9297 31.4141 23.7578 30.2422C22.5859 29.0703 22 27.6562 22 26C22 24.3438 22.5859 22.9297 23.7578 21.7578C24.9297 20.5859 26.3438 20 28 20C29.6562 20 31.0703 20.5859 32.2422 21.7578C33.4141 22.9297 34 24.3438 34 26ZM43 29.5156C43 30.3281 42.7083 30.9453 42.125 31.3672C41.5417 31.7891 40.8229 32 39.9688 32H37.875C36.8021 30.7188 35.4219 30.0521 33.7344 30C34.5781 28.7812 35 27.4479 35 26C35 25.6979 34.974 25.3542 34.9219 24.9688C35.6094 25.2083 36.3021 25.3281 37 25.3281C37.6146 25.3281 38.2344 25.2161 38.8594 24.9922C39.4844 24.7682 39.9922 24.5469 40.3828 24.3281C40.7734 24.1094 41 24 41.0625 24C42.3542 24 43 25.8385 43 29.5156ZM41 20C41 21.1042 40.6094 22.0469 39.8281 22.8281C39.0469 23.6094 38.1042 24 37 24C35.8958 24 34.9531 23.6094 34.1719 22.8281C33.3906 22.0469 33 21.1042 33 20C33 18.8958 33.3906 17.9531 34.1719 17.1719C34.9531 16.3906 35.8958 16 37 16C38.1042 16 39.0469 16.3906 39.8281 17.1719C40.6094 17.9531 41 18.8958 41 20Z" fill="white"/>
</g>
<defs>
<clipPath id="clip0_23_531">
<rect width="30" height="28" fill="white" transform="translate(13 16)"/>
</clipPath>
</defs>
</svg>
