<svg width="60" height="60" viewBox="0 0 60 60" fill="none" xmlns="http://www.w3.org/2000/svg">
<circle cx="30" cy="30" r="30" fill="#0D7373"/>
<g clip-path="url(#clip0_74_2)">
<path d="M30 12.5625C39.6328 12.5625 47.4375 20.3672 47.4375 30C47.4375 39.6328 39.6328 47.4375 30 47.4375C20.3672 47.4375 12.5625 39.6328 12.5625 30C12.5625 20.3672 20.3672 12.5625 30 12.5625ZM27.968 22.6594L33.2766 27.75H20.4375C19.5023 27.75 18.75 28.5023 18.75 29.4375V30.5625C18.75 31.4977 19.5023 32.25 20.4375 32.25H33.2766L27.968 37.3406C27.2859 37.9945 27.2719 39.0844 27.9398 39.7523L28.7133 40.5188C29.3742 41.1797 30.443 41.1797 31.0969 40.5188L40.4273 31.1953C41.0883 30.5344 41.0883 29.4656 40.4273 28.8117L31.0969 19.4742C30.4359 18.8133 29.3672 18.8133 28.7133 19.4742L27.9398 20.2406C27.2719 20.9156 27.2859 22.0055 27.968 22.6594V22.6594Z" fill="white"/>
</g>
<defs>
<clipPath id="clip0_74_2">
<rect width="36" height="36" fill="white" transform="translate(12 12)"/>
</clipPath>
</defs>
</svg>
