<svg width="60" height="60" viewBox="0 0 60 60" fill="none" xmlns="http://www.w3.org/2000/svg">
<circle cx="30" cy="30" r="30" fill="#104256"/>
<g clip-path="url(#clip0_23_450)">
<g clip-path="url(#clip1_23_450)">
<path d="M22.1 15C24.0096 15 25.8409 15.7586 27.1912 17.1088C28.5414 18.4591 29.3 20.2904 29.3 22.2C29.3 24.1096 28.5414 25.9409 27.1912 27.2912C25.8409 28.6414 24.0096 29.4 22.1 29.4C20.1904 29.4 18.3591 28.6414 17.0088 27.2912C15.6586 25.9409 14.9 24.1096 14.9 22.2C14.9 20.2904 15.6586 18.4591 17.0088 17.1088C18.3591 15.7586 20.1904 15 22.1 15ZM19.5294 32.1H24.6706C25.8294 32.1 26.9431 32.2969 27.9781 32.6569C27.6687 33.6187 27.5 34.6369 27.5 35.7C27.5 39.0469 29.1594 42.0056 31.7075 43.8H11.1706C10.2481 43.8 9.5 43.0519 9.5 42.1294C9.5 36.5887 13.9887 32.1 19.5294 32.1ZM29.3 35.7C29.3 33.5517 30.1534 31.4915 31.6724 29.9724C33.1915 28.4534 35.2517 27.6 37.4 27.6C39.5483 27.6 41.6085 28.4534 43.1276 29.9724C44.6466 31.4915 45.5 33.5517 45.5 35.7C45.5 37.8483 44.6466 39.9085 43.1276 41.4276C41.6085 42.9466 39.5483 43.8 37.4 43.8C35.2517 43.8 33.1915 42.9466 31.6724 41.4276C30.1534 39.9085 29.3 37.8483 29.3 35.7ZM37.4 31.2C36.905 31.2 36.5 31.605 36.5 32.1V35.7C36.5 36.195 36.905 36.6 37.4 36.6H40.1C40.595 36.6 41 36.195 41 35.7C41 35.205 40.595 34.8 40.1 34.8H38.3V32.1C38.3 31.605 37.895 31.2 37.4 31.2Z" fill="white"/>
</g>
</g>
<defs>
<clipPath id="clip0_23_450">
<rect width="36" height="29" fill="white" transform="translate(12 15)"/>
</clipPath>
<clipPath id="clip1_23_450">
<rect width="36" height="28.8" fill="white" transform="translate(9.5 15)"/>
</clipPath>
</defs>
</svg>
