<svg width="60" height="60" viewBox="0 0 60 60" fill="none" xmlns="http://www.w3.org/2000/svg">
<circle cx="30" cy="30" r="30" fill="#104256"/>
<path d="M35.8683 26.0333C35.8683 26.5008 35.6826 26.9491 35.3521 27.2796C35.0216 27.6101 34.5733 27.7958 34.1058 27.7958C33.6384 27.7958 33.1901 27.6101 32.8596 27.2796C32.529 26.9491 32.3433 26.5008 32.3433 26.0333C32.3433 25.5659 32.529 25.1176 32.8596 24.7871C33.1901 24.4565 33.6384 24.2708 34.1058 24.2708C34.5733 24.2708 35.0216 24.4565 35.3521 24.7871C35.6826 25.1176 35.8683 25.5659 35.8683 26.0333ZM50 30C50 41.045 41.045 50 30 50C29.4167 50 28.8383 49.975 28.2667 49.9267C31.6317 46.7767 32.5133 41.4917 32.5133 41.4917L27.1367 39.7367C27.1367 39.7367 24.6383 45.12 17.805 45.8533C15.3748 43.9869 13.4067 41.5862 12.0533 38.8371C10.6998 36.088 9.99727 33.0642 10 30C10 18.955 18.955 10 30 10C41.045 10 50 18.955 50 30ZM24.38 21.01C22.33 20.7933 21.2383 19.6267 20.9967 17.625C20.76 19.5567 19.7133 20.7583 17.61 21.01C19.5567 21.3883 20.66 22.54 20.995 24.3967C20.9617 22.4733 22.105 21.355 24.38 21.01ZM37.3567 29.6883C39.2067 25.55 38.01 22.6017 35.3017 19.2783C31.8967 21.7783 29.0367 24.3167 29.2417 27.86C26.95 28.985 25.4733 29.87 23.9967 31.675L28.6283 33.5133L28.015 35.625L34.0767 37.395L34.815 35.4267L39.5233 36.5117C39.5467 34.0183 38.89 31.35 37.3567 29.6883Z" fill="white"/>
</svg>
